# xmcd
#
# Track frame offsets: 
#        150
#        13520
#        24662
#        37900
#        48193
#        61243
#        75596
#        88332
#        100591
#        113609
#        123874
#        136850
#        148505
#        161665
#        171863
#        185730
#        196956
#        208778
#        220885
#        232751
#        243394
#        256310
#        266578
#        277865
#        288981
#        299804
#        311591
#
# Disc length: 4328 seconds
#
# Revision: 1
# Processed by: cddbd v1.5.2PL0 Copyright (c) Steve Scherf et al.
# Submitted via: ExactAudioCopy v1.0b1
#
DISCID=7e10e61b
DTITLE=Various Artist - Livin' That Wild Life: The Herald Ember Blues
DTITLE=and Gospel Masters [CD1]
DYEAR=2008
DGENRE=Blues
TTITLE0=Orville 'Fats' Noel - You Belong To Me
TTITLE1=Orville 'Fats' Noel - High Tide
TTITLE2=Orville 'Fats' Noel - Wish You Were Here
TTITLE3=Orville 'Fats' Noel - Duck Soup
TTITLE4=Little Walter - I Just Keep Lovin' Her
TTITLE5=Little Walter - Take A Walk With Me (Muskadine Blues)
TTITLE6=Little Walter - Rollin' And Tumblin'
TTITLE7=Little Walter - Boll Weevil
TTITLE8=Eddie Boyd - Lonesome For My Baby
TTITLE9=Eddie Boyd - I'm Going Downtown
TTITLE10=St. Louis Jimmy - Hard Luck Boogie
TTITLE11=St. Louis Jimmy - Good Luck Blues
TTITLE12=St. Louis Jimmy - Your Evil Ways
TTITLE13=Harris Gospel Singers - Lord I'm In Your Care
TTITLE14=Harris Gospel Singers - The Old Account
TTITLE15=Mr. Stringbean - Pass The Juice Miss Lucy
TTITLE16=Mr. Stringbean - Who's Gonna Cry For Me
TTITLE17=Dickie Thompson - Thirteen Women And One Man
TTITLE18=Dickie Thompson - I'm Innocent
TTITLE19=National Clouds Of Joy - Jesus Make Me Feel Alright
TTITLE20=National Clouds Of Joy - Comin' Home
TTITLE21=National Clouds Of Joy - How Much More Can I Bear
TTITLE22=National Clouds Of Joy - Somebody Touched Me
TTITLE23=Johnny Frank - Lil' Lover
TTITLE24=Johnny Frank - Oh Darlin'
TTITLE25=Larry Dale - Feelin' Alright
TTITLE26=Larry Dale - No Tellin' What I'll Do
EXTD=YEAR: 2008
EXTT0=
EXTT1=
EXTT2=
EXTT3=
EXTT4=
EXTT5=
EXTT6=
EXTT7=
EXTT8=
EXTT9=
EXTT10=
EXTT11=
EXTT12=
EXTT13=
EXTT14=
EXTT15=
EXTT16=
EXTT17=
EXTT18=
EXTT19=
EXTT20=
EXTT21=
EXTT22=
EXTT23=
EXTT24=
EXTT25=
EXTT26=
PLAYORDER=
